<?xml version="1.0" encoding="UTF-8"?>
<svg xmlns="http://www.w3.org/2000/svg" id="Outline" viewBox="0 0 512 512" width="45" height="35"><path d="M173.657,138.343A8,8,0,0,0,168,136H107.313L29.657,58.343A8,8,0,0,0,18.343,69.657l80,80A8,8,0,0,0,104,152h60.687L282.343,269.657A8,8,0,0,0,288,272h68.836L482.528,389.836a8,8,0,0,0,10.944-11.672l-128-120A8,8,0,0,0,360,256H291.313Z"/><path d="M72,160H24a8,8,0,0,0-8,8V472a8,8,0,0,0,8,8H72a8,8,0,0,0,8-8V168A8,8,0,0,0,72,160ZM64,464H32V176H64Z"/><path d="M104,480h48a8,8,0,0,0,8-8V232a8,8,0,0,0-8-8H104a8,8,0,0,0-8,8V472A8,8,0,0,0,104,480Zm8-240h32V464H112Z"/><path d="M240,472V288a8,8,0,0,0-8-8H184a8,8,0,0,0-8,8V472a8,8,0,0,0,8,8h48A8,8,0,0,0,240,472Zm-16-8H192V296h32Z"/><path d="M320,472V352a8,8,0,0,0-8-8H264a8,8,0,0,0-8,8V472a8,8,0,0,0,8,8h48A8,8,0,0,0,320,472Zm-16-8H272V360h32Z"/><path d="M392,480a8,8,0,0,0,8-8V384a8,8,0,0,0-8-8H344a8,8,0,0,0-8,8v88a8,8,0,0,0,8,8Zm-40-88h32v72H352Z"/><path d="M472,480a8,8,0,0,0,8-8V424a8,8,0,0,0-8-8H424a8,8,0,0,0-8,8v48a8,8,0,0,0,8,8Zm-40-48h32v32H432Z"/><path d="M456,32H392a8,8,0,0,0-8,8V176H360a8,8,0,0,0-5.657,13.657l64,64a8,8,0,0,0,11.314,0l64-64A8,8,0,0,0,488,176H464V40A8,8,0,0,0,456,32Zm12.686,160L424,236.687,379.314,192H392a8,8,0,0,0,8-8V48h48V184a8,8,0,0,0,8,8Z"/></svg>
